<svg version="1.1" viewBox="0.0 0.0 960.0 540.0" fill="none" stroke="none" stroke-linecap="square" stroke-miterlimit="10" xmlns:xlink="http://www.w3.org/1999/xlink" xmlns="http://www.w3.org/2000/svg"><clipPath id="p.0"><path d="m0 0l960.0 0l0 540.0l-960.0 0l0 -540.0z" clip-rule="nonzero"/></clipPath><g clip-path="url(#p.0)"><path fill="#000000" d="m0 0l960.0 0l0 540.0l-960.0 0z" fill-rule="evenodd"/><path fill="#000000" fill-opacity="0.0" d="m93.480316 196.34645l773.0394 0l0 141.95277l-773.0394 0z" fill-rule="evenodd"/><path fill="#ffffff" d="m294.4999 262.12283l-0.203125 -126.203125l-61.390625 106.796875l-3.609375 0l-61.59375 -106.390625l0 125.796875l-6.609375 0l0 -140.0l5.609375 0l64.390625 112.0l64.203125 -112.0l5.609375 0l0.1875 140.0l-6.59375 0zm115.79379 0.796875q-20.390625 0 -36.890625 -9.1875q-16.5 -9.203125 -25.90625 -25.40625q-9.390625 -16.203125 -9.390625 -36.203125q0 -20.0 9.390625 -36.203125q9.40625 -16.203125 25.90625 -25.390625q16.5 -9.203125 36.890625 -9.203125q20.40625 0 37.0 9.203125q16.609375 9.1875 26.0 25.390625q9.40625 16.203125 9.40625 36.203125q0 20.0 -9.40625 36.203125q-9.390625 16.203125 -26.0 25.40625q-16.59375 9.1875 -37.0 9.1875zm0 -6.203125q18.40625 0 33.40625 -8.390625q15.0 -8.40625 23.59375 -23.203125q8.609375 -14.796875 8.609375 -33.0q0 -18.203125 -8.609375 -33.0q-8.59375 -14.796875 -23.59375 -23.1875q-15.0 -8.40625 -33.40625 -8.40625q-18.390625 0 -33.296875 8.40625q-14.890625 8.390625 -23.5 23.1875q-8.59375 14.796875 -8.59375 33.0q0 18.203125 8.59375 33.0q8.609375 14.796875 23.5 23.203125q14.90625 8.390625 33.296875 8.390625zm167.40002 6.203125q-20.390625 0 -36.890625 -9.1875q-16.5 -9.203125 -25.90625 -25.40625q-9.3905945 -16.203125 -9.3905945 -36.203125q0 -20.0 9.3905945 -36.203125q9.40625 -16.203125 25.90625 -25.390625q16.5 -9.203125 36.890625 -9.203125q20.40625 0 37.0 9.203125q16.609375 9.1875 26.0 25.390625q9.40625 16.203125 9.40625 36.203125q0 20.0 -9.40625 36.203125q-9.390625 16.203125 -26.0 25.40625q-16.59375 9.1875 -37.0 9.1875zm0 -6.203125q18.40625 0 33.40625 -8.390625q15.0 -8.40625 23.59375 -23.203125q8.609375 -14.796875 8.609375 -33.0q0 -18.203125 -8.609375 -33.0q-8.59375 -14.796875 -23.59375 -23.1875q-15.0 -8.40625 -33.40625 -8.40625q-18.390625 0 -33.296875 8.40625q-14.890625 8.390625 -23.5 23.1875q-8.59375 14.796875 -8.59375 33.0q0 18.203125 8.59375 33.0q8.609375 14.796875 23.5 23.203125q14.90625 8.390625 33.296875 8.390625zm221.21252 -134.59375l0 140.0l-5.609375 0l-99.390625 -127.59375l0 127.59375l-6.8125 0l0 -140.0l5.609375 0l99.390625 127.59375l0 -127.59375l6.8125 0z" fill-rule="nonzero"/><path fill="#ffffff" d="m154.14215 283.1947l21.609375 0l0 75.734375l46.796875 0l0 17.59375l-68.40625 0l0 -93.328125zm142.79898 73.328125l-43.328125 0l-8.265625 20.0l-22.140625 0l41.609375 -93.328125l21.328125 0l41.734375 93.328125l-22.671875 0l-8.265625 -20.0zm-6.796875 -16.40625l-14.796875 -35.71875l-14.8125 35.71875l29.609375 0zm133.05127 -56.921875l0 93.328125l-17.71875 0l-46.53125 -56.671875l0 56.671875l-21.34375 0l0 -93.328125l17.875 0l46.390625 56.65625l0 -56.65625l21.328125 0zm22.135437 0l42.40625 0q15.1875 0 26.859344 5.796875q11.671875 5.796875 18.125 16.328125q6.46875 10.53125 6.46875 24.53125q0 14.0 -6.46875 24.546875q-6.453125 10.53125 -18.125 16.328125q-11.6718445 5.796875 -26.859344 5.796875l-42.40625 0l0 -93.328125zm41.328125 75.59375q14.0 0 22.328125 -7.796875q8.3437195 -7.796875 8.3437195 -21.140625q0 -13.328125 -8.3437195 -21.125q-8.328125 -7.796875 -22.328125 -7.796875l-19.71875 0l0 57.859375l19.71875 0zm141.06656 0.40625l0 17.328125l-72.265625 0l0 -93.328125l70.53125 0l0 17.328125l-49.0625 0l0 20.265625l43.328125 0l0 16.796875l-43.328125 0l0 21.609375l50.796875 0zm76.66638 17.328125l-18.0 -26.0l-1.0625 0l-18.796875 0l0 26.0l-21.609375 0l0 -93.328125l40.40625 0q12.390625 0 21.515625 4.140625q9.140625 4.125 14.078125 11.734375q4.9375 7.59375 4.9375 17.984375q0 10.40625 -5.0 17.9375q-5.0 7.53125 -14.203125 11.53125l20.9375 30.0l-23.203125 0zm-0.40625 -59.46875q0 -7.859375 -5.0625 -12.0625q-5.0625 -4.203125 -14.796875 -4.203125l-17.59375 0l0 32.53125l17.59375 0q9.734375 0 14.796875 -4.265625q5.0625 -4.265625 5.0625 -12.0zm69.60559 61.0625q-11.0625 0 -21.40625 -3.0q-10.328125 -3.0 -16.59375 -7.796875l7.328125 -16.265625q6.0 4.40625 14.265625 7.078125q8.265625 2.65625 16.53125 2.65625q9.203125 0 13.59375 -2.734375q4.40625 -2.734375 4.40625 -7.265625q0 -3.328125 -2.59375 -5.53125q-2.59375 -2.203125 -6.671875 -3.53125q-4.0625 -1.328125 -11.0 -2.9375q-10.65625 -2.53125 -17.46875 -5.0625q-6.796875 -2.53125 -11.671875 -8.125q-4.859375 -5.609375 -4.859375 -14.9375q0 -8.140625 4.40625 -14.734375q4.40625 -6.609375 13.265625 -10.46875q8.859375 -3.859375 21.671875 -3.859375q8.921875 0 17.453125 2.140625q8.546875 2.125 14.9375 6.125l-6.671875 16.390625q-12.921875 -7.328125 -25.859375 -7.328125q-9.0625 0 -13.40625 2.9375q-4.328125 2.921875 -4.328125 7.71875q0 4.8125 5.0 7.140625q5.0 2.328125 15.265625 4.59375q10.671875 2.53125 17.46875 5.078125q6.796875 2.53125 11.65625 8.0q4.875 5.453125 4.875 14.796875q0 8.0 -4.46875 14.59375q-4.46875 6.59375 -13.40625 10.46875q-8.921875 3.859375 -21.71875 3.859375z" fill-rule="nonzero"/></g></svg>